<svg xmlns="http://www.w3.org/2000/svg" viewBox="0 0 32 32" width="32" height="32">
  <!-- Flower Center -->
  <circle cx="16" cy="16" r="3.5" fill="#ffd1dc" stroke="#ff758f" stroke-width="1.5" />
  
  <!-- Petals -->
  <!-- Top Petal -->
  <path d="M16,12.5 C16,12.5 13.5,6.5 16,3 C18.5,6.5 16,12.5 16,12.5 Z" fill="#ffccd5" stroke="#ff758f" stroke-width="1.5" stroke-linejoin="round" />
  <!-- Bottom Petal -->
  <path d="M16,19.5 C16,19.5 13.5,25.5 16,29 C18.5,25.5 16,19.5 16,19.5 Z" fill="#ffccd5" stroke="#ff758f" stroke-width="1.5" stroke-linejoin="round" />
  <!-- Left Petal -->
  <path d="M12.5,16 C12.5,16 6.5,13.5 3,16 C6.5,18.5 12.5,16 12.5,16 Z" fill="#ffccd5" stroke="#ff758f" stroke-width="1.5" stroke-linejoin="round" />
  <!-- Right Petal -->
  <path d="M19.5,16 C19.5,16 25.5,13.5 29,16 C25.5,18.5 19.5,16 19.5,16 Z" fill="#ffccd5" stroke="#ff758f" stroke-width="1.5" stroke-linejoin="round" />
  
  <!-- Diagonal Petals -->
  <!-- Top-Left -->
  <path d="M13.5,13.5 C13.5,13.5 7.5,9.5 9.5,6.5 C12.5,8.5 13.5,13.5 13.5,13.5 Z" fill="#ffe5ec" stroke="#ff758f" stroke-width="1.5" stroke-linejoin="round" />
  <!-- Bottom-Right -->
  <path d="M18.5,18.5 C18.5,18.5 24.5,22.5 22.5,25.5 C19.5,23.5 18.5,18.5 18.5,18.5 Z" fill="#ffe5ec" stroke="#ff758f" stroke-width="1.5" stroke-linejoin="round" />
  <!-- Bottom-Left -->
  <path d="M13.5,18.5 C13.5,18.5 7.5,22.5 9.5,25.5 C12.5,23.5 13.5,18.5 13.5,18.5 Z" fill="#ffe5ec" stroke="#ff758f" stroke-width="1.5" stroke-linejoin="round" />
  <!-- Top-Right -->
  <path d="M18.5,13.5 C18.5,13.5 24.5,9.5 22.5,6.5 C19.5,8.5 18.5,13.5 18.5,13.5 Z" fill="#ffe5ec" stroke="#ff758f" stroke-width="1.5" stroke-linejoin="round" />
  
  <!-- Tiny center detail -->
  <circle cx="16" cy="16" r="1.5" fill="#ffffff" />
</svg>
